# xmcd CD database file
#
# Track frame offsets:
#	183
#	14113
#	36480
#	54650
#	71440
#	85318
#	104110
#	133765
#	147973
#	165785
#	177618
#	197545
#	221608
#	240425
#	293558
#	322835
#
# Disc length: 4622 seconds
#
# Revision: 0
# Processed by: cddbd v1.5.2PL0 Copyright (c) Steve Scherf et al.
# Submitted via: CDex 1.51
#
DISCID=ec120c10
DTITLE=hans koller - masterpieces
DYEAR=1900
DGENRE=Jazz
TTITLE0=do do
TTITLE1=The Gentle Art Of Love
TTITLE2=racy
TTITLE3=Painter's Lament
TTITLE4=It's Over
TTITLE5=Mr. Heine's Blues
TTITLE6=All The Things You Are
TTITLE7=Music For Pablo
TTITLE8=Opmet
TTITLE9=Opening
TTITLE10=52nd Street
TTITLE11=Black And White
TTITLE12=Phoenix
TTITLE13=Ulla M. and 22/8
TTITLE14=Scarlet No.II
TTITLE15=Akt, Eine Treppe Hinabsteigend
EXTD=
EXTT0=
EXTT1=
EXTT2=
EXTT3=
EXTT4=
EXTT5=
EXTT6=
EXTT7=
EXTT8=
EXTT9=
EXTT10=
EXTT11=
EXTT12=
EXTT13=
EXTT14=
EXTT15=
PLAYORDER=
